<svg xmlns="http://www.w3.org/2000/svg" xmlns:xlink="http://www.w3.org/1999/xlink" width="3500" zoomAndPan="magnify" viewBox="0 0 2625 1499.999933" height="2000" preserveAspectRatio="xMidYMid meet" version="1.0"><defs><g/><linearGradient x1="0" gradientTransform="matrix(0.75, 0, 0, 0.75, 0.0000583625, -0.00002)" y1="0" x2="3499.999854" gradientUnits="userSpaceOnUse" y2="0" id="ba5b48a7d7"><stop stop-opacity="1" stop-color="rgb(80.39856%, 100%, 84.698486%)" offset="0"/><stop stop-opacity="1" stop-color="rgb(80.311584%, 99.891663%, 84.757996%)" offset="0.0078125"/><stop stop-opacity="1" stop-color="rgb(80.136108%, 99.676514%, 84.87854%)" offset="0.015625"/><stop stop-opacity="1" stop-color="rgb(79.960632%, 99.461365%, 84.997559%)" offset="0.0234375"/><stop stop-opacity="1" stop-color="rgb(79.786682%, 99.246216%, 85.116577%)" offset="0.03125"/><stop stop-opacity="1" stop-color="rgb(79.611206%, 99.032593%, 85.237122%)" offset="0.0390625"/><stop stop-opacity="1" stop-color="rgb(79.43573%, 98.817444%, 85.35614%)" offset="0.046875"/><stop stop-opacity="1" stop-color="rgb(79.26178%, 98.602295%, 85.476685%)" offset="0.0546875"/><stop stop-opacity="1" stop-color="rgb(79.086304%, 98.387146%, 85.595703%)" offset="0.0625"/><stop stop-opacity="1" stop-color="rgb(78.910828%, 98.171997%, 85.714722%)" offset="0.0703125"/><stop stop-opacity="1" stop-color="rgb(78.736877%, 97.958374%, 85.835266%)" offset="0.078125"/><stop stop-opacity="1" stop-color="rgb(78.561401%, 97.743225%, 85.954285%)" offset="0.0859375"/><stop stop-opacity="1" stop-color="rgb(78.385925%, 97.528076%, 86.073303%)" offset="0.09375"/><stop stop-opacity="1" stop-color="rgb(78.211975%, 97.312927%, 86.193848%)" offset="0.101562"/><stop stop-opacity="1" stop-color="rgb(78.036499%, 97.097778%, 86.312866%)" offset="0.109375"/><stop stop-opacity="1" stop-color="rgb(77.861023%, 96.884155%, 86.431885%)" offset="0.117188"/><stop stop-opacity="1" stop-color="rgb(77.685547%, 96.669006%, 86.552429%)" offset="0.125"/><stop stop-opacity="1" stop-color="rgb(77.511597%, 96.453857%, 86.671448%)" offset="0.132812"/><stop stop-opacity="1" stop-color="rgb(77.336121%, 96.238708%, 86.790466%)" offset="0.140625"/><stop stop-opacity="1" stop-color="rgb(77.160645%, 96.02356%, 86.911011%)" offset="0.148438"/><stop stop-opacity="1" stop-color="rgb(76.986694%, 95.809937%, 87.030029%)" offset="0.15625"/><stop stop-opacity="1" stop-color="rgb(76.811218%, 95.594788%, 87.149048%)" offset="0.164062"/><stop stop-opacity="1" stop-color="rgb(76.635742%, 95.379639%, 87.269592%)" offset="0.171875"/><stop stop-opacity="1" stop-color="rgb(76.461792%, 95.16449%, 87.388611%)" offset="0.179688"/><stop stop-opacity="1" stop-color="rgb(76.286316%, 94.949341%, 87.507629%)" offset="0.1875"/><stop stop-opacity="1" stop-color="rgb(76.11084%, 94.735718%, 87.628174%)" offset="0.195312"/><stop stop-opacity="1" stop-color="rgb(75.93689%, 94.520569%, 87.747192%)" offset="0.203125"/><stop stop-opacity="1" stop-color="rgb(75.761414%, 94.30542%, 87.866211%)" offset="0.210938"/><stop stop-opacity="1" stop-color="rgb(75.585938%, 94.090271%, 87.986755%)" offset="0.21875"/><stop stop-opacity="1" stop-color="rgb(75.410461%, 93.875122%, 88.105774%)" offset="0.226562"/><stop stop-opacity="1" stop-color="rgb(75.236511%, 93.661499%, 88.224792%)" offset="0.234375"/><stop stop-opacity="1" stop-color="rgb(75.061035%, 93.44635%, 88.345337%)" offset="0.242188"/><stop stop-opacity="1" stop-color="rgb(74.885559%, 93.231201%, 88.464355%)" offset="0.25"/><stop stop-opacity="1" stop-color="rgb(74.711609%, 93.016052%, 88.583374%)" offset="0.257812"/><stop stop-opacity="1" stop-color="rgb(74.536133%, 92.800903%, 88.703918%)" offset="0.265625"/><stop stop-opacity="1" stop-color="rgb(74.360657%, 92.58728%, 88.822937%)" offset="0.273438"/><stop stop-opacity="1" stop-color="rgb(74.186707%, 92.372131%, 88.941956%)" offset="0.28125"/><stop stop-opacity="1" stop-color="rgb(74.01123%, 92.156982%, 89.0625%)" offset="0.289062"/><stop stop-opacity="1" stop-color="rgb(73.835754%, 91.941833%, 89.181519%)" offset="0.296875"/><stop stop-opacity="1" stop-color="rgb(73.661804%, 91.726685%, 89.300537%)" offset="0.304688"/><stop stop-opacity="1" stop-color="rgb(73.486328%, 91.513062%, 89.421082%)" offset="0.3125"/><stop stop-opacity="1" stop-color="rgb(73.310852%, 91.297913%, 89.5401%)" offset="0.320312"/><stop stop-opacity="1" stop-color="rgb(73.136902%, 91.082764%, 89.659119%)" offset="0.328125"/><stop stop-opacity="1" stop-color="rgb(72.961426%, 90.867615%, 89.779663%)" offset="0.335938"/><stop stop-opacity="1" stop-color="rgb(72.78595%, 90.652466%, 89.898682%)" offset="0.34375"/><stop stop-opacity="1" stop-color="rgb(72.610474%, 90.438843%, 90.0177%)" offset="0.351562"/><stop stop-opacity="1" stop-color="rgb(72.436523%, 90.223694%, 90.138245%)" offset="0.359375"/><stop stop-opacity="1" stop-color="rgb(72.261047%, 90.008545%, 90.257263%)" offset="0.367188"/><stop stop-opacity="1" stop-color="rgb(72.085571%, 89.793396%, 90.376282%)" offset="0.375"/><stop stop-opacity="1" stop-color="rgb(71.911621%, 89.578247%, 90.496826%)" offset="0.382812"/><stop stop-opacity="1" stop-color="rgb(71.736145%, 89.364624%, 90.615845%)" offset="0.390625"/><stop stop-opacity="1" stop-color="rgb(71.560669%, 89.149475%, 90.734863%)" offset="0.398438"/><stop stop-opacity="1" stop-color="rgb(71.386719%, 88.934326%, 90.855408%)" offset="0.40625"/><stop stop-opacity="1" stop-color="rgb(71.211243%, 88.719177%, 90.974426%)" offset="0.414062"/><stop stop-opacity="1" stop-color="rgb(71.035767%, 88.504028%, 91.093445%)" offset="0.421875"/><stop stop-opacity="1" stop-color="rgb(70.861816%, 88.290405%, 91.213989%)" offset="0.429688"/><stop stop-opacity="1" stop-color="rgb(70.68634%, 88.075256%, 91.333008%)" offset="0.4375"/><stop stop-opacity="1" stop-color="rgb(70.510864%, 87.860107%, 91.452026%)" offset="0.445312"/><stop stop-opacity="1" stop-color="rgb(70.336914%, 87.644958%, 91.572571%)" offset="0.453125"/><stop stop-opacity="1" stop-color="rgb(70.161438%, 87.42981%, 91.691589%)" offset="0.460938"/><stop stop-opacity="1" stop-color="rgb(69.985962%, 87.216187%, 91.810608%)" offset="0.46875"/><stop stop-opacity="1" stop-color="rgb(69.810486%, 87.001038%, 91.931152%)" offset="0.476562"/><stop stop-opacity="1" stop-color="rgb(69.636536%, 86.785889%, 92.050171%)" offset="0.484375"/><stop stop-opacity="1" stop-color="rgb(69.46106%, 86.57074%, 92.169189%)" offset="0.492188"/><stop stop-opacity="1" stop-color="rgb(69.285583%, 86.355591%, 92.289734%)" offset="0.5"/><stop stop-opacity="1" stop-color="rgb(69.111633%, 86.141968%, 92.408752%)" offset="0.507812"/><stop stop-opacity="1" stop-color="rgb(68.936157%, 85.926819%, 92.527771%)" offset="0.515625"/><stop stop-opacity="1" stop-color="rgb(68.760681%, 85.71167%, 92.648315%)" offset="0.523438"/><stop stop-opacity="1" stop-color="rgb(68.586731%, 85.496521%, 92.767334%)" offset="0.53125"/><stop stop-opacity="1" stop-color="rgb(68.411255%, 85.281372%, 92.886353%)" offset="0.539062"/><stop stop-opacity="1" stop-color="rgb(68.235779%, 85.067749%, 93.006897%)" offset="0.546875"/><stop stop-opacity="1" stop-color="rgb(68.061829%, 84.8526%, 93.125916%)" offset="0.554688"/><stop stop-opacity="1" stop-color="rgb(67.886353%, 84.637451%, 93.244934%)" offset="0.5625"/><stop stop-opacity="1" stop-color="rgb(67.710876%, 84.422302%, 93.365479%)" offset="0.570312"/><stop stop-opacity="1" stop-color="rgb(67.536926%, 84.207153%, 93.484497%)" offset="0.578125"/><stop stop-opacity="1" stop-color="rgb(67.36145%, 83.99353%, 93.603516%)" offset="0.585938"/><stop stop-opacity="1" stop-color="rgb(67.185974%, 83.778381%, 93.72406%)" offset="0.59375"/><stop stop-opacity="1" stop-color="rgb(67.010498%, 83.563232%, 93.843079%)" offset="0.601562"/><stop stop-opacity="1" stop-color="rgb(66.836548%, 83.348083%, 93.962097%)" offset="0.609375"/><stop stop-opacity="1" stop-color="rgb(66.661072%, 83.132935%, 94.082642%)" offset="0.617188"/><stop stop-opacity="1" stop-color="rgb(66.485596%, 82.919312%, 94.20166%)" offset="0.625"/><stop stop-opacity="1" stop-color="rgb(66.311646%, 82.704163%, 94.320679%)" offset="0.632812"/><stop stop-opacity="1" stop-color="rgb(66.136169%, 82.489014%, 94.441223%)" offset="0.640625"/><stop stop-opacity="1" stop-color="rgb(65.960693%, 82.273865%, 94.560242%)" offset="0.648438"/><stop stop-opacity="1" stop-color="rgb(65.786743%, 82.058716%, 94.67926%)" offset="0.65625"/><stop stop-opacity="1" stop-color="rgb(65.611267%, 81.845093%, 94.799805%)" offset="0.664062"/><stop stop-opacity="1" stop-color="rgb(65.435791%, 81.629944%, 94.918823%)" offset="0.671875"/><stop stop-opacity="1" stop-color="rgb(65.261841%, 81.414795%, 95.037842%)" offset="0.679688"/><stop stop-opacity="1" stop-color="rgb(65.086365%, 81.199646%, 95.158386%)" offset="0.6875"/><stop stop-opacity="1" stop-color="rgb(64.910889%, 80.984497%, 95.277405%)" offset="0.695312"/><stop stop-opacity="1" stop-color="rgb(64.736938%, 80.770874%, 95.396423%)" offset="0.703125"/><stop stop-opacity="1" stop-color="rgb(64.561462%, 80.555725%, 95.516968%)" offset="0.710938"/><stop stop-opacity="1" stop-color="rgb(64.385986%, 80.340576%, 95.635986%)" offset="0.71875"/><stop stop-opacity="1" stop-color="rgb(64.21051%, 80.125427%, 95.755005%)" offset="0.726562"/><stop stop-opacity="1" stop-color="rgb(64.03656%, 79.910278%, 95.875549%)" offset="0.734375"/><stop stop-opacity="1" stop-color="rgb(63.861084%, 79.696655%, 95.994568%)" offset="0.742188"/><stop stop-opacity="1" stop-color="rgb(63.685608%, 79.481506%, 96.113586%)" offset="0.75"/><stop stop-opacity="1" stop-color="rgb(63.511658%, 79.266357%, 96.234131%)" offset="0.757812"/><stop stop-opacity="1" stop-color="rgb(63.336182%, 79.051208%, 96.353149%)" offset="0.765625"/><stop stop-opacity="1" stop-color="rgb(63.160706%, 78.83606%, 96.472168%)" offset="0.773438"/><stop stop-opacity="1" stop-color="rgb(62.986755%, 78.622437%, 96.592712%)" offset="0.78125"/><stop stop-opacity="1" stop-color="rgb(62.811279%, 78.407288%, 96.711731%)" offset="0.789062"/><stop stop-opacity="1" stop-color="rgb(62.635803%, 78.192139%, 96.83075%)" offset="0.796875"/><stop stop-opacity="1" stop-color="rgb(62.461853%, 77.97699%, 96.951294%)" offset="0.804688"/><stop stop-opacity="1" stop-color="rgb(62.286377%, 77.761841%, 97.070312%)" offset="0.8125"/><stop stop-opacity="1" stop-color="rgb(62.110901%, 77.548218%, 97.189331%)" offset="0.820312"/><stop stop-opacity="1" stop-color="rgb(61.936951%, 77.333069%, 97.309875%)" offset="0.828125"/><stop stop-opacity="1" stop-color="rgb(61.761475%, 77.11792%, 97.428894%)" offset="0.835938"/><stop stop-opacity="1" stop-color="rgb(61.585999%, 76.902771%, 97.547913%)" offset="0.84375"/><stop stop-opacity="1" stop-color="rgb(61.410522%, 76.687622%, 97.668457%)" offset="0.851562"/><stop stop-opacity="1" stop-color="rgb(61.236572%, 76.473999%, 97.787476%)" offset="0.859375"/><stop stop-opacity="1" stop-color="rgb(61.061096%, 76.25885%, 97.906494%)" offset="0.867188"/><stop stop-opacity="1" stop-color="rgb(60.88562%, 76.043701%, 98.027039%)" offset="0.875"/><stop stop-opacity="1" stop-color="rgb(60.71167%, 75.828552%, 98.146057%)" offset="0.882812"/><stop stop-opacity="1" stop-color="rgb(60.536194%, 75.613403%, 98.265076%)" offset="0.890625"/><stop stop-opacity="1" stop-color="rgb(60.360718%, 75.39978%, 98.38562%)" offset="0.898438"/><stop stop-opacity="1" stop-color="rgb(60.186768%, 75.184631%, 98.504639%)" offset="0.90625"/><stop stop-opacity="1" stop-color="rgb(60.011292%, 74.969482%, 98.623657%)" offset="0.914062"/><stop stop-opacity="1" stop-color="rgb(59.835815%, 74.754333%, 98.744202%)" offset="0.921875"/><stop stop-opacity="1" stop-color="rgb(59.661865%, 74.539185%, 98.86322%)" offset="0.929688"/><stop stop-opacity="1" stop-color="rgb(59.486389%, 74.325562%, 98.982239%)" offset="0.9375"/><stop stop-opacity="1" stop-color="rgb(59.310913%, 74.110413%, 99.102783%)" offset="0.945312"/><stop stop-opacity="1" stop-color="rgb(59.136963%, 73.895264%, 99.221802%)" offset="0.953125"/><stop stop-opacity="1" stop-color="rgb(58.961487%, 73.680115%, 99.34082%)" offset="0.960938"/><stop stop-opacity="1" stop-color="rgb(58.786011%, 73.464966%, 99.461365%)" offset="0.96875"/><stop stop-opacity="1" stop-color="rgb(58.610535%, 73.251343%, 99.580383%)" offset="0.976562"/><stop stop-opacity="1" stop-color="rgb(58.436584%, 73.036194%, 99.699402%)" offset="0.984375"/><stop stop-opacity="1" stop-color="rgb(58.261108%, 72.821045%, 99.819946%)" offset="0.992188"/><stop stop-opacity="1" stop-color="rgb(58.085632%, 72.605896%, 99.938965%)" offset="1"/></linearGradient></defs><rect x="-262.5" fill="url(#ba5b48a7d7)" width="3150" y="-149.999993" height="1799.99992"/><path stroke-linecap="butt" transform="matrix(0.000000000000000046, 0.750112, -0.75, 0.000000000000000046, 1305.031362, 150.215021)" fill="none" stroke-linejoin="miter" d="M -0.000236913 10.00015 L 1040.859266 10.00015 " stroke="#000000" stroke-width="20" stroke-opacity="1" stroke-miterlimit="4"/><path stroke-linecap="butt" transform="matrix(0.000000000000000046, -0.750276, 0.75, 0.000000000000000046, 1154.894839, 808.093854)" fill="none" stroke-linejoin="miter" d="M 0.000139144 9.999591 L 720.734556 9.999591 " stroke="#000000" stroke-width="20" stroke-opacity="1" stroke-miterlimit="4"/><path stroke-linecap="butt" transform="matrix(0.000000000000000046, -0.750276, 0.75, 0.000000000000000046, 1419.662864, 808.093854)" fill="none" stroke-linejoin="miter" d="M 0.000139144 10.001599 L 720.734556 10.001599 " stroke="#000000" stroke-width="20" stroke-opacity="1" stroke-miterlimit="4"/><path stroke-linecap="butt" transform="matrix(0.000000000000000046, -0.750882, 0.75, 0.000000000000000046, 1016.992363, 668.809386)" fill="none" stroke-linejoin="miter" d="M 0.00105562 9.999767 L 345.600024 9.999767 " stroke="#000000" stroke-width="20" stroke-opacity="1" stroke-miterlimit="4"/><path stroke-linecap="butt" transform="matrix(0.000000000000000046, 0.750882, -0.75, 0.000000000000000046, 1579.256754, 409.614065)" fill="none" stroke-linejoin="miter" d="M -0.0010434 9.99859 L 345.603127 9.99859 " stroke="#000000" stroke-width="20" stroke-opacity="1" stroke-miterlimit="4"/><path stroke-linecap="butt" transform="matrix(0.532549, 0.532549, -0.53033, 0.53033, 1515.792936, 409.404329)" fill="none" stroke-linejoin="miter" d="M -0.00183273 10.000713 L 119.507404 10.000713 " stroke="#000000" stroke-width="20" stroke-opacity="1" stroke-miterlimit="4"/><path stroke-linecap="butt" transform="matrix(0.532549, 0.532549, -0.53033, 0.53033, 1106.428451, 267.335758)" fill="none" stroke-linejoin="miter" d="M 0.00132961 10.001619 L 119.506898 9.997936 " stroke="#000000" stroke-width="20" stroke-opacity="1" stroke-miterlimit="4"/><path stroke-linecap="butt" transform="matrix(0.532549, 0.532549, -0.53033, 0.53033, 1241.570447, 150.002194)" fill="none" stroke-linejoin="miter" d="M -0.00218684 10.000674 L 119.507049 10.000674 " stroke="#000000" stroke-width="20" stroke-opacity="1" stroke-miterlimit="4"/><path stroke-linecap="butt" transform="matrix(0.532549, 0.532549, -0.53033, 0.53033, 968.528471, 409.404329)" fill="none" stroke-linejoin="miter" d="M 0.00074554 9.998124 L 119.509982 9.998124 " stroke="#000000" stroke-width="20" stroke-opacity="1" stroke-miterlimit="4"/><path stroke-linecap="butt" transform="matrix(0.532549, 0.532549, -0.53033, 0.53033, 1371.196452, 267.335758)" fill="none" stroke-linejoin="miter" d="M 0.00276615 10.000177 L 119.508335 9.996494 " stroke="#000000" stroke-width="20" stroke-opacity="1" stroke-miterlimit="4"/><path stroke-linecap="butt" transform="matrix(0.532549, -0.532549, 0.53033, 0.53033, 1017.080827, 472.778747)" fill="none" stroke-linejoin="miter" d="M -0.00121888 9.998745 L 119.508017 9.998745 " stroke="#000000" stroke-width="20" stroke-opacity="1" stroke-miterlimit="4"/><path stroke-linecap="butt" transform="matrix(0.532549, -0.532549, 0.53033, 0.53033, 1157.397271, 330.710224)" fill="none" stroke-linejoin="miter" d="M 0.000425916 9.997022 L 119.505995 10.000705 " stroke="#000000" stroke-width="20" stroke-opacity="1" stroke-miterlimit="4"/><path stroke-linecap="butt" transform="matrix(0.532549, -0.532549, 0.53033, 0.53033, 1564.345244, 472.778747)" fill="none" stroke-linejoin="miter" d="M -0.0000845859 9.999884 L 119.509152 9.999884 " stroke="#000000" stroke-width="20" stroke-opacity="1" stroke-miterlimit="4"/><path stroke-linecap="butt" transform="matrix(0.532549, -0.532549, 0.53033, 0.53033, 1419.74888, 330.710224)" fill="none" stroke-linejoin="miter" d="M 0.00038188 9.996978 L 119.505951 10.000661 " stroke="#000000" stroke-width="20" stroke-opacity="1" stroke-miterlimit="4"/><path stroke-linecap="butt" transform="matrix(0.532549, -0.532549, 0.53033, 0.53033, 1290.122875, 213.376632)" fill="none" stroke-linejoin="miter" d="M -0.000140333 9.999397 L 119.509096 9.999397 " stroke="#000000" stroke-width="20" stroke-opacity="1" stroke-miterlimit="4"/><g fill="#000000" fill-opacity="1"><g transform="translate(1476.441963, 905.260039)"><g><path d="M 44.078125 -61.015625 C 41.910156 -61.546875 40.15625 -62.671875 38.8125 -64.390625 C 37.46875 -66.109375 36.867188 -68.050781 37.015625 -70.21875 C 37.085938 -71.1875 37.535156 -71.953125 38.359375 -72.515625 C 39.179688 -73.078125 40.039062 -73.226562 40.9375 -72.96875 C 41.832031 -72.707031 42.429688 -72.050781 42.734375 -71 C 43.109375 -69.4375 43.910156 -68.503906 45.140625 -68.203125 C 46.378906 -67.898438 47.613281 -68.125 48.84375 -68.875 C 50.082031 -69.625 51 -70.554688 51.59375 -71.671875 C 52.789062 -73.691406 53.296875 -75.878906 53.109375 -78.234375 C 52.921875 -80.585938 52.003906 -82.628906 50.359375 -84.359375 C 47.523438 -87.046875 43.523438 -88.351562 38.359375 -88.28125 C 34.617188 -88.207031 30.84375 -87.046875 27.03125 -84.796875 C 23.8125 -82.929688 21.421875 -80.203125 19.859375 -76.609375 C 18.585938 -73.617188 18.097656 -70.59375 18.390625 -67.53125 C 19.140625 -61.25 23.367188 -54.96875 31.078125 -48.6875 C 32.492188 -47.632812 35.5 -45.59375 40.09375 -42.5625 C 44.695312 -39.539062 48.046875 -36.941406 50.140625 -34.765625 C 53.285156 -31.554688 55.507812 -27.859375 56.8125 -23.671875 C 58.125 -19.484375 58.332031 -15.21875 57.4375 -10.875 C 56.539062 -6.6875 54.613281 -2.96875 51.65625 0.28125 C 48.695312 3.53125 45.367188 5.898438 41.671875 7.390625 C 37.972656 8.890625 34.007812 9.300781 29.78125 8.625 C 25.550781 7.957031 21.832031 6.054688 18.625 2.921875 C 15.476562 -0.148438 13.644531 -3.851562 13.125 -8.1875 C 12.601562 -12.519531 13.800781 -16.410156 16.71875 -19.859375 C 19.332031 -22.617188 22.546875 -24.164062 26.359375 -24.5 C 30.171875 -24.84375 33.460938 -23.664062 36.234375 -20.96875 C 37.128906 -20.070312 37.539062 -19.0625 37.46875 -17.9375 C 37.394531 -16.820312 36.960938 -15.925781 36.171875 -15.25 C 35.390625 -14.582031 34.472656 -14.15625 33.421875 -13.96875 C 32.378906 -13.78125 31.375 -14.171875 30.40625 -15.140625 C 29.425781 -15.960938 28.300781 -16.296875 27.03125 -16.140625 C 25.757812 -15.992188 24.640625 -15.472656 23.671875 -14.578125 C 22.546875 -13.378906 22.039062 -12.03125 22.15625 -10.53125 C 22.269531 -9.039062 22.8125 -7.625 23.78125 -6.28125 C 25.875 -3.363281 29.050781 -1.941406 33.3125 -2.015625 C 36.300781 -2.015625 39.109375 -3.363281 41.734375 -6.0625 C 43.898438 -8.300781 45.242188 -10.953125 45.765625 -14.015625 C 45.835938 -14.316406 45.875 -14.65625 45.875 -15.03125 C 45.875 -15.550781 45.875 -16 45.875 -16.375 C 45.875 -17.050781 45.800781 -17.648438 45.65625 -18.171875 C 45.351562 -19.585938 44.753906 -21.007812 43.859375 -22.4375 C 43.554688 -22.957031 43.144531 -23.476562 42.625 -24 C 42.175781 -24.53125 41.578125 -25.164062 40.828125 -25.90625 C 39.628906 -27.03125 38.472656 -28.003906 37.359375 -28.828125 C 36.453125 -29.503906 35.421875 -30.210938 34.265625 -30.953125 C 33.109375 -31.703125 31.929688 -32.46875 30.734375 -33.25 C 29.535156 -34.039062 28.488281 -34.734375 27.59375 -35.328125 C 18.320312 -41.910156 12.078125 -48.601562 8.859375 -55.40625 C 6.691406 -59.894531 5.609375 -64.515625 5.609375 -69.265625 C 5.609375 -74.015625 6.65625 -78.632812 8.75 -83.125 C 10.84375 -87.53125 13.890625 -91.15625 17.890625 -94 C 21.890625 -96.84375 26.320312 -98.5625 31.1875 -99.15625 C 35.75 -99.675781 40.046875 -99.117188 44.078125 -97.484375 C 48.191406 -95.835938 51.707031 -93.03125 54.625 -89.0625 C 56.414062 -86.75 57.722656 -84.207031 58.546875 -81.4375 C 59.367188 -78.664062 59.570312 -75.800781 59.15625 -72.84375 C 58.75 -69.894531 57.613281 -67.335938 55.75 -65.171875 C 54.78125 -64.117188 53.660156 -63.21875 52.390625 -62.46875 C 51.117188 -61.726562 49.769531 -61.226562 48.34375 -60.96875 C 46.925781 -60.707031 45.503906 -60.722656 44.078125 -61.015625 Z M 44.078125 -61.015625 "/></g></g></g><g fill="#000000" fill-opacity="1"><g transform="translate(1536.56127, 905.260039)"><g><path d="M 40.265625 -43.515625 C 41.015625 -44.492188 41.988281 -44.625 43.1875 -43.90625 C 44.382812 -43.195312 44.757812 -42.285156 44.3125 -41.171875 C 42.664062 -37.203125 40.160156 -33.816406 36.796875 -31.015625 C 33.429688 -28.210938 29.691406 -26.4375 25.578125 -25.6875 C 21.316406 -25.007812 17.875 -25.125 15.25 -26.03125 C 11.21875 -27.59375 8.191406 -30.28125 6.171875 -34.09375 C 4.828125 -36.789062 4.019531 -39.707031 3.75 -42.84375 C 3.488281 -45.988281 3.898438 -49.09375 4.984375 -52.15625 C 6.078125 -55.226562 7.851562 -57.625 10.3125 -59.34375 C 14.050781 -61.957031 17.789062 -62.78125 21.53125 -61.8125 C 25.425781 -60.757812 27.332031 -57.878906 27.25 -53.171875 C 27.25 -49.429688 26.179688 -46.195312 24.046875 -43.46875 C 21.921875 -40.738281 19.101562 -39.035156 15.59375 -38.359375 C 16.5625 -36.640625 17.925781 -35.570312 19.6875 -35.15625 C 21.445312 -34.75 23.5625 -34.660156 26.03125 -34.890625 C 28.789062 -35.179688 30.921875 -35.851562 32.421875 -36.90625 C 36.304688 -39.675781 38.921875 -41.878906 40.265625 -43.515625 Z M 19.40625 -54.515625 C 17.238281 -53.691406 15.703125 -52.101562 14.796875 -49.75 C 13.898438 -47.394531 13.679688 -44.945312 14.140625 -42.40625 C 17.347656 -43.445312 19.664062 -45.316406 21.09375 -48.015625 C 22.0625 -49.734375 22.429688 -51.453125 22.203125 -53.171875 C 22.128906 -54.140625 21.867188 -54.71875 21.421875 -54.90625 C 20.972656 -55.09375 20.300781 -54.960938 19.40625 -54.515625 Z M 19.40625 -54.515625 "/></g></g></g><g fill="#000000" fill-opacity="1"><g transform="translate(1570.210178, 905.260039)"><g><path d="M 49.46875 -42.625 C 50.144531 -43.445312 51.039062 -43.539062 52.15625 -42.90625 C 53.28125 -42.269531 53.65625 -41.425781 53.28125 -40.375 C 52.382812 -38.132812 51.726562 -36.566406 51.3125 -35.671875 C 50.90625 -34.773438 50.210938 -33.445312 49.234375 -31.6875 C 48.265625 -29.925781 47.21875 -28.484375 46.09375 -27.359375 C 44.976562 -26.242188 43.707031 -25.347656 42.28125 -24.671875 C 38.914062 -23.109375 35.660156 -23.128906 32.515625 -24.734375 C 29.378906 -26.335938 27.515625 -28.972656 26.921875 -32.640625 C 26.773438 -33.460938 26.660156 -34.378906 26.578125 -35.390625 C 26.503906 -36.398438 26.484375 -37.238281 26.515625 -37.90625 C 26.554688 -38.582031 26.597656 -39.519531 26.640625 -40.71875 C 26.679688 -41.914062 26.703125 -42.773438 26.703125 -43.296875 C 26.847656 -44.640625 26.863281 -46.300781 26.75 -48.28125 C 26.632812 -50.269531 26.242188 -51.898438 25.578125 -53.171875 C 24.972656 -54.210938 24.238281 -54.882812 23.375 -55.1875 C 22.519531 -55.488281 21.644531 -55.46875 20.75 -55.125 C 19.851562 -54.789062 18.992188 -54.175781 18.171875 -53.28125 C 16.222656 -51.488281 14.953125 -49.429688 14.359375 -47.109375 C 14.503906 -45.242188 14.578125 -44.007812 14.578125 -43.40625 C 14.648438 -42.363281 14.757812 -41.035156 14.90625 -39.421875 C 15.0625 -37.816406 15.195312 -36.4375 15.3125 -35.28125 C 15.425781 -34.125 15.519531 -32.796875 15.59375 -31.296875 C 15.664062 -29.796875 15.664062 -28.445312 15.59375 -27.25 C 15.519531 -25.757812 14.898438 -24.640625 13.734375 -23.890625 C 12.578125 -23.140625 11.34375 -22.96875 10.03125 -23.375 C 8.726562 -23.789062 7.890625 -24.710938 7.515625 -26.140625 C 6.617188 -29.429688 6.019531 -35.039062 5.71875 -42.96875 C 5.414062 -50.21875 5.753906 -55.75 6.734375 -59.5625 C 7.023438 -61.0625 8.03125 -61.8125 9.75 -61.8125 C 11.476562 -61.8125 12.53125 -61.0625 12.90625 -59.5625 C 13.050781 -58.664062 13.234375 -57.617188 13.453125 -56.421875 C 15.179688 -58.210938 17.015625 -59.519531 18.953125 -60.34375 C 22.316406 -61.695312 25.421875 -61.507812 28.265625 -59.78125 C 31.109375 -58.0625 33.128906 -55.484375 34.328125 -52.046875 C 35.222656 -49.429688 35.671875 -45.65625 35.671875 -40.71875 C 35.671875 -40.570312 35.632812 -39.972656 35.5625 -38.921875 C 35.488281 -37.878906 35.453125 -37 35.453125 -36.28125 C 35.453125 -35.570312 35.5625 -34.820312 35.78125 -34.03125 C 36.007812 -33.25 36.347656 -32.710938 36.796875 -32.421875 C 38.285156 -31.296875 40.488281 -32.15625 43.40625 -35 C 43.851562 -35.445312 44.300781 -35.910156 44.75 -36.390625 C 45.195312 -36.878906 45.609375 -37.382812 45.984375 -37.90625 C 46.359375 -38.4375 46.734375 -38.941406 47.109375 -39.421875 C 47.484375 -39.910156 47.894531 -40.453125 48.34375 -41.046875 C 48.789062 -41.648438 49.164062 -42.175781 49.46875 -42.625 Z M 49.46875 -42.625 "/></g></g></g><g fill="#000000" fill-opacity="1"><g transform="translate(1610.925332, 905.260039)"><g><path d="M 41.0625 -40.9375 C 41.957031 -41.914062 42.984375 -42.253906 44.140625 -41.953125 C 45.296875 -41.648438 46.117188 -40.992188 46.609375 -39.984375 C 47.097656 -38.972656 47.078125 -37.875 46.546875 -36.6875 C 44.160156 -32.5 41.507812 -29.691406 38.59375 -28.265625 C 34.851562 -26.472656 30.773438 -26.285156 26.359375 -27.703125 C 21.722656 -29.203125 17.6875 -31.742188 14.25 -35.328125 C 14.84375 -31.585938 15.289062 -28.820312 15.59375 -27.03125 C 15.738281 -25.6875 15.53125 -24.453125 14.96875 -23.328125 C 14.414062 -22.210938 13.503906 -21.46875 12.234375 -21.09375 C 11.328125 -20.863281 10.460938 -20.878906 9.640625 -21.140625 C 8.816406 -21.398438 8.109375 -21.8125 7.515625 -22.375 C 6.921875 -22.9375 6.507812 -23.628906 6.28125 -24.453125 C 3.363281 -33.128906 1.679688 -44.457031 1.234375 -58.4375 C 1.003906 -63.601562 1.078125 -68.613281 1.453125 -73.46875 C 1.898438 -78.851562 2.425781 -82.628906 3.03125 -84.796875 C 3.40625 -86.148438 3.890625 -87.460938 4.484375 -88.734375 C 5.085938 -90.003906 5.851562 -91.234375 6.78125 -92.421875 C 7.71875 -93.617188 8.820312 -94.476562 10.09375 -95 C 11.363281 -95.53125 12.75 -95.535156 14.25 -95.015625 C 15.21875 -94.710938 16.128906 -94.070312 16.984375 -93.09375 C 17.847656 -92.125 18.523438 -91.078125 19.015625 -89.953125 C 19.503906 -88.835938 19.859375 -87.71875 20.078125 -86.59375 C 20.753906 -83.457031 20.492188 -79.457031 19.296875 -74.59375 C 17.953125 -68.757812 15.410156 -63.410156 11.671875 -58.546875 C 11.742188 -57.203125 11.816406 -55.859375 11.890625 -54.515625 C 12.640625 -55.109375 14.359375 -56.53125 17.046875 -58.78125 C 19.367188 -60.71875 21.238281 -62.210938 22.65625 -63.265625 C 22.882812 -63.410156 23.222656 -63.671875 23.671875 -64.046875 C 24.117188 -64.421875 24.472656 -64.703125 24.734375 -64.890625 C 24.992188 -65.078125 25.328125 -65.300781 25.734375 -65.5625 C 26.148438 -65.820312 26.546875 -66.023438 26.921875 -66.171875 C 27.296875 -66.328125 27.707031 -66.441406 28.15625 -66.515625 C 29.050781 -66.671875 29.875 -66.425781 30.625 -65.78125 C 31.375 -65.144531 31.5625 -64.34375 31.1875 -63.375 C 31.113281 -63 30.960938 -62.625 30.734375 -62.25 C 30.515625 -61.875 30.234375 -61.476562 29.890625 -61.0625 C 29.554688 -60.65625 29.296875 -60.359375 29.109375 -60.171875 C 28.921875 -59.992188 28.5625 -59.640625 28.03125 -59.109375 C 27.507812 -58.585938 27.210938 -58.289062 27.140625 -58.21875 C 26.472656 -57.539062 24.828125 -55.96875 22.203125 -53.5 C 21.910156 -53.207031 21.273438 -52.570312 20.296875 -51.59375 C 19.328125 -50.625 18.582031 -49.914062 18.0625 -49.46875 C 17.539062 -49.019531 16.847656 -48.4375 15.984375 -47.71875 C 15.117188 -47.007812 14.316406 -46.394531 13.578125 -45.875 C 17.460938 -41.3125 22.171875 -37.984375 27.703125 -35.890625 C 30.691406 -34.691406 33.234375 -34.617188 35.328125 -35.671875 C 35.628906 -35.816406 35.984375 -36.019531 36.390625 -36.28125 C 36.804688 -36.550781 37.164062 -36.816406 37.46875 -37.078125 C 37.769531 -37.335938 38.085938 -37.65625 38.421875 -38.03125 C 38.753906 -38.40625 39.050781 -38.722656 39.3125 -38.984375 C 39.570312 -39.242188 39.867188 -39.578125 40.203125 -39.984375 C 40.546875 -40.398438 40.832031 -40.71875 41.0625 -40.9375 Z M 13.453125 -88.0625 Z M 12.5625 -87.9375 L 12.34375 -88.0625 L 12.671875 -87.828125 C 12.597656 -87.828125 12.5625 -87.863281 12.5625 -87.9375 Z M 11.78125 -80.546875 C 11.707031 -79.117188 11.648438 -77.207031 11.609375 -74.8125 C 11.566406 -72.425781 11.546875 -70.070312 11.546875 -67.75 C 12.898438 -70.8125 13.875 -73.953125 14.46875 -77.171875 C 15.289062 -81.878906 15.253906 -85.019531 14.359375 -86.59375 C 14.128906 -87.039062 13.753906 -87.378906 13.234375 -87.609375 C 13.015625 -87.085938 12.753906 -86.335938 12.453125 -85.359375 C 12.378906 -84.835938 12.191406 -83.828125 11.890625 -82.328125 C 11.890625 -82.179688 11.890625 -82.070312 11.890625 -82 C 11.890625 -81.925781 11.890625 -81.847656 11.890625 -81.765625 C 11.816406 -81.398438 11.78125 -80.992188 11.78125 -80.546875 Z M 11.78125 -80.546875 "/></g></g></g><g fill="#000000" fill-opacity="1"><g transform="translate(1644.57424, 905.260039)"><g><path d="M 29.171875 -41.171875 C 30.210938 -42.140625 31.273438 -42.210938 32.359375 -41.390625 C 33.441406 -40.566406 33.6875 -39.519531 33.09375 -38.25 C 32.269531 -36.53125 31.316406 -34.921875 30.234375 -33.421875 C 29.148438 -31.929688 27.894531 -30.550781 26.46875 -29.28125 C 25.050781 -28.007812 23.578125 -27.015625 22.046875 -26.296875 C 20.515625 -25.585938 18.832031 -25.304688 17 -25.453125 C 15.164062 -25.609375 13.347656 -26.285156 11.546875 -27.484375 C 9.453125 -28.828125 7.84375 -30.710938 6.71875 -33.140625 C 5.601562 -35.578125 5.082031 -38.101562 5.15625 -40.71875 C 5.226562 -42.363281 5.488281 -45.09375 5.9375 -48.90625 C 6.394531 -52.789062 6.882812 -55.519531 7.40625 -57.09375 C 7.851562 -58.363281 8.691406 -59.203125 9.921875 -59.609375 C 11.160156 -60.023438 12.300781 -59.894531 13.34375 -59.21875 C 14.394531 -58.550781 14.921875 -57.507812 14.921875 -56.09375 C 15.066406 -53.988281 14.804688 -49.757812 14.140625 -43.40625 C 13.765625 -39.375 14.25 -36.421875 15.59375 -34.546875 C 16.414062 -33.578125 17.3125 -33.050781 18.28125 -32.96875 C 19.257812 -32.894531 20.304688 -33.234375 21.421875 -33.984375 C 22.546875 -34.734375 23.519531 -35.484375 24.34375 -36.234375 C 25.164062 -36.984375 26.097656 -37.9375 27.140625 -39.09375 C 28.191406 -40.25 28.867188 -40.941406 29.171875 -41.171875 Z M 16.265625 -67.078125 C 15.515625 -65.578125 14.242188 -64.828125 12.453125 -64.828125 C 10.660156 -64.828125 9.40625 -65.578125 8.6875 -67.078125 C 7.976562 -68.578125 7.976562 -70.054688 8.6875 -71.515625 C 9.40625 -72.972656 10.660156 -73.703125 12.453125 -73.703125 C 14.242188 -73.703125 15.515625 -72.972656 16.265625 -71.515625 C 17.015625 -70.054688 17.015625 -68.578125 16.265625 -67.078125 Z M 16.265625 -67.078125 "/></g></g></g><g fill="#000000" fill-opacity="1"><g transform="translate(971.529798, 1276.487876)"><g><path d="M 88.265625 -79.789062 L 68.046875 -76.960938 C 64.789062 -76.308594 62.613281 -76.09375 61.089844 -75.875 C 60.4375 -75.875 60.003906 -75.65625 58.480469 -75.441406 L 49.132812 -73.265625 L 45.871094 -72.394531 C 42.394531 -71.527344 40.871094 -71.09375 40.003906 -70.003906 C 39.132812 -68.917969 39.132812 -67.394531 39.132812 -63.917969 C 39.132812 -57.179688 40.65625 -53.699219 47.613281 -51.960938 C 65.875 -55.4375 80.222656 -58.917969 98.484375 -58.917969 L 98.484375 -1.085938 C 99.136719 -0.433594 100.875 0.433594 101.964844 0.433594 L 107.832031 0.433594 C 115.441406 0.433594 122.183594 -1.957031 122.183594 -11.304688 C 122.183594 -16.304688 121.964844 -21.304688 121.53125 -26.304688 C 120.878906 -30.871094 120.878906 -56.308594 121.3125 -57.613281 C 121.53125 -58.480469 121.964844 -59.351562 122.183594 -60.4375 L 169.792969 -63.917969 C 172.1875 -63.917969 173.273438 -64.789062 173.273438 -66.527344 C 173.273438 -69.136719 173.273438 -72.394531 171.75 -75.65625 C 170.230469 -78.917969 168.273438 -80.875 164.792969 -80.875 L 123.921875 -80.875 L 123.921875 -113.269531 C 123.921875 -114.136719 123.488281 -114.789062 122.398438 -115.226562 C 120.441406 -116.09375 118.050781 -116.53125 115.441406 -116.53125 L 113.050781 -116.53125 C 109.355469 -116.53125 106.746094 -115.660156 105.226562 -113.921875 C 101.746094 -110.441406 100.660156 -104.789062 100.660156 -98.703125 L 100.222656 -90.222656 C 100.007812 -84.789062 99.136719 -80.875 95.007812 -80.875 Z M 49.351562 -135.226562 C 48.046875 -134.792969 47.394531 -134.140625 47.613281 -133.054688 L 47.613281 -130.226562 C 47.613281 -128.488281 48.917969 -124.574219 50.65625 -121.3125 C 52.175781 -117.835938 54.351562 -114.789062 56.089844 -114.789062 L 67.832031 -114.789062 L 122.183594 -123.488281 C 122.183594 -123.488281 122.617188 -123.703125 123.488281 -123.921875 C 124.355469 -124.140625 125.007812 -124.355469 125.660156 -125.007812 C 134.140625 -130.226562 140.878906 -136.097656 140.878906 -147.183594 C 140.878906 -151.316406 135.007812 -153.921875 131.53125 -153.921875 L 129.140625 -153.921875 L 127.617188 -153.488281 C 126.53125 -152.835938 125.660156 -152.621094 125.007812 -152.402344 C 123.921875 -151.75 123.050781 -151.53125 122.183594 -151.316406 C 121.3125 -150.878906 120.878906 -150.664062 120.660156 -150.664062 C 97.179688 -142.835938 73.917969 -136.097656 49.351562 -135.226562 Z M 49.351562 -135.226562 "/></g></g></g><g fill="#000000" fill-opacity="1"><g transform="translate(1188.832109, 1276.487876)"><g><path d="M 95.222656 -153.921875 C 95.222656 -150.445312 95.875 -146.53125 96.964844 -142.402344 C 98.050781 -138.269531 97.617188 -131.75 97.617188 -127.183594 C 95.875 -127.183594 90.875 -126.964844 86.746094 -126.746094 C 82.398438 -126.53125 78.265625 -126.3125 76.527344 -126.3125 C 75.875 -126.3125 75.441406 -126.3125 73.917969 -126.53125 C 71.308594 -126.746094 68.046875 -126.097656 65.4375 -126.746094 C 63.917969 -126.964844 63.484375 -126.964844 62.832031 -126.964844 L 59.351562 -126.964844 C 58.480469 -126.097656 56.089844 -125.878906 54.570312 -123.050781 C 53.699219 -121.53125 53.699219 -117.617188 53.699219 -114.136719 C 53.699219 -112.183594 53.699219 -109.789062 53.917969 -107.398438 L 55.65625 -105.660156 L 61.742188 -104.789062 C 65.003906 -104.136719 68.484375 -103.921875 70.875 -103.921875 L 94.570312 -103.921875 L 98.050781 -102.179688 L 98.050781 -20.652344 C 98.050781 -18.042969 100.660156 -16.089844 103.484375 -14.566406 C 106.3125 -13.042969 109.355469 -12.175781 110.878906 -12.175781 L 111.746094 -12.175781 L 115.007812 -12.390625 C 115.878906 -12.390625 123.488281 -16.304688 123.488281 -18.914062 L 123.488281 -104.355469 L 172.839844 -104.355469 C 173.707031 -104.355469 175.445312 -109.136719 176.097656 -111.746094 L 176.097656 -118.269531 C 176.097656 -121.746094 176.097656 -123.050781 172.839844 -125.445312 C 156.316406 -128.050781 140.878906 -128.050781 124.355469 -128.050781 L 124.140625 -154.792969 C 124.140625 -155.226562 123.050781 -156.097656 120.878906 -157.183594 C 116.53125 -159.140625 112.832031 -160.878906 108.269531 -162.402344 C 106.09375 -163.054688 104.789062 -163.273438 104.136719 -163.273438 C 100.660156 -163.273438 94.789062 -160.878906 94.789062 -156.53125 Z M 133.054688 -87.179688 C 133.054688 -81.308594 133.921875 -76.960938 138.054688 -72.832031 C 139.792969 -70.441406 145.226562 -65.003906 150.664062 -59.785156 C 155.878906 -54.351562 161.53125 -48.917969 163.488281 -47.175781 C 168.707031 -42.175781 174.578125 -38.699219 182.1875 -38.699219 C 188.492188 -38.699219 193.273438 -41.742188 196.535156 -46.742188 C 199.796875 -51.742188 200.882812 -57.394531 200.882812 -63.484375 L 200.882812 -65.875 C 200.015625 -66.742188 195.882812 -71.09375 194.144531 -71.09375 C 193.273438 -71.09375 191.96875 -71.09375 190.011719 -71.308594 C 186.316406 -71.527344 181.535156 -71.960938 177.839844 -72.613281 C 175.882812 -72.832031 174.578125 -72.832031 173.707031 -72.832031 C 169.578125 -73.265625 166.097656 -74.351562 163.273438 -76.09375 C 157.402344 -79.570312 153.054688 -84.570312 148.054688 -89.136719 C 145.664062 -91.527344 143.054688 -93.265625 139.792969 -94.789062 L 137.183594 -94.789062 C 136.097656 -94.789062 135.226562 -94.789062 134.792969 -95.007812 C 134.140625 -95.007812 133.488281 -94.355469 133.054688 -93.050781 Z M 28.261719 -69.136719 C 23.261719 -65.65625 21.523438 -61.527344 21.523438 -55.4375 C 21.523438 -50.875 24.132812 -48.480469 27.609375 -46.960938 C 30.871094 -45.4375 35.003906 -45.21875 38.480469 -45.21875 C 47.394531 -45.21875 59.570312 -51.089844 69.789062 -59.132812 C 80.003906 -67.179688 87.613281 -77.613281 87.613281 -86.960938 C 87.613281 -91.964844 85.007812 -94.570312 80.003906 -94.570312 L 77.613281 -94.570312 C 76.09375 -93.050781 72.394531 -90.007812 68.265625 -86.746094 C 64.136719 -83.265625 60.003906 -80.222656 58.917969 -79.351562 C 54.570312 -76.09375 49.570312 -74.136719 43.699219 -72.613281 C 37.828125 -71.09375 32.609375 -70.003906 28.261719 -69.136719 Z M 28.261719 -69.136719 "/></g></g></g><g fill="#000000" fill-opacity="1"><g transform="translate(1406.134421, 1276.487876)"><g><path d="M 135.878906 -140.226562 C 135.878906 -139.574219 136.097656 -138.921875 136.75 -137.835938 C 137.402344 -136.75 137.617188 -135.878906 137.617188 -135.226562 C 140.226562 -127.617188 140.878906 -120.007812 140.878906 -112.183594 C 140.878906 -111.53125 140.878906 -110.226562 141.097656 -108.703125 C 141.097656 -107.179688 140.445312 -106.3125 139.359375 -106.3125 L 115.441406 -106.3125 C 114.574219 -106.3125 113.484375 -106.09375 112.183594 -105.441406 L 110.441406 -104.574219 L 110.441406 -87.613281 L 113.703125 -84.136719 C 114.789062 -84.136719 118.921875 -84.136719 123.050781 -83.484375 C 127.183594 -82.832031 131.3125 -82.613281 132.402344 -82.613281 C 134.355469 -82.613281 136.53125 -82.398438 138.707031 -81.746094 L 142.617188 -80.875 L 142.617188 -48.480469 C 141.964844 -47.613281 142.402344 -42.828125 142.183594 -42.613281 L 105.226562 -42.613281 L 103.921875 -40.871094 C 103.269531 -40.003906 102.617188 -38.699219 101.964844 -38.480469 C 100.222656 -35.003906 100.222656 -35.003906 100.222656 -31.523438 C 100.222656 -27.394531 102.832031 -23.914062 106.964844 -23.046875 C 118.050781 -21.304688 125.660156 -21.304688 136.75 -21.304688 L 149.359375 -21.304688 C 152.835938 -21.304688 161.75 -21.957031 171.097656 -22.828125 C 180.449219 -23.480469 188.707031 -24.132812 191.96875 -24.785156 C 196.96875 -26.523438 196.96875 -28.261719 196.96875 -33.261719 C 196.96875 -34.132812 196.96875 -35.65625 197.1875 -37.609375 C 197.1875 -41.742188 195.664062 -41.523438 192.40625 -42.613281 C 190.882812 -43.265625 189.578125 -43.480469 188.492188 -43.480469 C 187.621094 -43.480469 186.101562 -43.480469 184.144531 -43.699219 C 180.011719 -43.917969 175.011719 -44.351562 170.882812 -45.003906 C 168.925781 -45.21875 167.402344 -45.21875 166.535156 -45.21875 L 164.792969 -46.960938 L 164.792969 -80.875 L 166.535156 -82.613281 C 167.402344 -82.613281 168.707031 -82.832031 170.664062 -83.050781 L 176.75 -83.917969 C 180.882812 -84.570312 185.011719 -85.222656 186.753906 -85.875 C 190.230469 -86.746094 195.230469 -88.484375 195.230469 -92.832031 C 195.230469 -94.570312 195.011719 -95.875 194.363281 -96.964844 L 191.96875 -101.3125 C 190.882812 -102.832031 189.144531 -104.355469 186.96875 -105.441406 C 182.839844 -107.398438 178.492188 -105.441406 174.144531 -106.09375 L 168.054688 -106.746094 L 166.535156 -108.269531 C 166.535156 -109.136719 166.535156 -110.660156 166.316406 -113.050781 C 165.664062 -117.398438 165.230469 -126.097656 165.011719 -130.660156 C 164.792969 -135.007812 164.792969 -138.054688 163.054688 -140.445312 C 161.097656 -142.835938 157.835938 -143.707031 154.359375 -143.707031 L 140.878906 -143.707031 C 138.921875 -143.054688 135.878906 -141.75 135.878906 -140.226562 Z M 27.175781 -113.921875 C 27.175781 -111.3125 27.394531 -107.398438 28.480469 -104.136719 C 29.566406 -100.660156 31.957031 -97.832031 35.65625 -97.832031 L 56.089844 -97.832031 C 56.089844 -93.484375 51.742188 -87.613281 49.351562 -84.136719 L 46.960938 -81.746094 L 42.828125 -77.832031 L 13.480469 -56.960938 L 13.480469 -55.4375 C 13.480469 -48.480469 17.828125 -45.21875 24.566406 -45.21875 C 28.261719 -45.21875 32.394531 -47.828125 36.089844 -50.4375 C 39.785156 -52.828125 43.265625 -55.4375 45.871094 -55.4375 L 46.742188 -54.785156 C 47.394531 -54.132812 47.613281 -53.917969 47.613281 -53.699219 C 47.613281 -53.265625 47.613281 -52.828125 47.828125 -52.394531 C 48.046875 -50.875 48.480469 -49.785156 49.132812 -48.265625 C 49.351562 -47.828125 49.351562 -47.394531 49.351562 -46.960938 L 50.222656 -39.132812 C 50.4375 -35.4375 50.65625 -31.523438 51.308594 -27.394531 C 51.960938 -18.914062 52.613281 -10.652344 52.613281 -7.828125 L 54.351562 -4.347656 C 55.4375 -4.128906 57.613281 -3.476562 58.699219 -3.476562 C 64.570312 -3.476562 68.699219 -4.347656 71.960938 -9.566406 L 71.960938 -11.304688 C 71.960938 -19.785156 71.527344 -28.480469 70.441406 -36.960938 C 69.351562 -45.4375 68.699219 -54.132812 68.699219 -63.046875 L 72.179688 -76.527344 C 73.917969 -83.265625 75.875 -90.222656 76.746094 -91.3125 L 80.65625 -97.179688 C 83.050781 -101.3125 85.007812 -105.441406 85.007812 -109.789062 C 85.007812 -114.789062 83.265625 -118.269531 78.050781 -120.007812 C 75.222656 -120.007812 66.308594 -120.226562 57.613281 -120.878906 C 48.917969 -121.53125 40.21875 -121.53125 37.394531 -121.53125 L 32.175781 -121.53125 C 31.957031 -121.53125 31.523438 -121.53125 31.089844 -121.746094 L 29.351562 -121.746094 C 27.828125 -121.53125 27.175781 -120.878906 27.175781 -120.007812 Z M 45.871094 -149.574219 C 45.871094 -146.75 47.394531 -140.445312 50.003906 -135.226562 C 52.394531 -129.792969 55.875 -125.007812 60.222656 -125.007812 C 67.832031 -125.007812 71.308594 -130.007812 71.308594 -136.964844 C 71.308594 -138.488281 71.308594 -140.445312 71.527344 -142.402344 C 71.527344 -144.359375 70.875 -145.878906 69.570312 -147.183594 C 65.4375 -152.183594 60.222656 -158.925781 53.480469 -158.925781 C 48.480469 -158.925781 45.871094 -153.921875 45.871094 -149.574219 Z M 72.832031 -64.789062 C 72.832031 -64.136719 73.046875 -63.265625 73.265625 -62.179688 C 73.484375 -60.65625 73.917969 -59.132812 74.570312 -57.832031 C 76.308594 -52.394531 94.570312 -41.523438 95.660156 -41.523438 C 98.921875 -41.523438 103.703125 -45.4375 103.703125 -51.308594 C 103.703125 -54.785156 103.050781 -57.394531 102.398438 -58.917969 C 100.875 -62.394531 98.269531 -64.136719 95.007812 -65.222656 C 93.265625 -65.875 87.398438 -70.003906 86.746094 -70.65625 C 86.09375 -70.875 85.65625 -71.308594 85.441406 -71.308594 L 82.613281 -71.308594 C 81.527344 -71.308594 79.136719 -70.65625 77.179688 -69.570312 C 75.222656 -68.484375 73.046875 -67.179688 72.832031 -64.789062 Z M 72.832031 -64.789062 "/></g></g></g></svg>